<?xml version="1.0" encoding="utf-8"?>
<!-- Generator: Adobe Illustrator 26.3.1, SVG Export Plug-In . SVG Version: 6.00 Build 0)  -->
<svg version="1.1" id="Capa_1" xmlns="http://www.w3.org/2000/svg" xmlns:xlink="http://www.w3.org/1999/xlink" x="0px" y="0px"
	 viewBox="0 0 2114.5 500" style="enable-background:new 0 0 2114.5 500;" xml:space="preserve">
<style type="text/css">
	.st0{fill:url(#SVGID_1_);}
	.st1{fill:url(#SVGID_00000150791240338380233430000009518684725550924175_);}
	.st2{fill:#1F293D;}
	.st3{fill:url(#SVGID_00000142177638591198513620000001224515608337458576_);}
	.st4{fill:url(#SVGID_00000103963259732708598150000013187338063685471914_);}
	.st5{fill:#C9FEFF;}
	.st6{fill:url(#SVGID_00000165957596094163462770000017592254900286239932_);}
	.st7{fill:#52A1EB;}
	.st8{fill:#30435E;}
	.st9{fill:#1B293B;}
	.st10{fill:#25354C;}
	.st11{fill:#60B5FD;}
	.st12{fill:#2561B7;}
	.st13{fill:#1E3B69;}
	.st14{fill:#2563BA;}
	.st15{enable-background:new    ;}
	.st16{fill:#E5E5E5;}
	.st17{fill:#3777C4;}
</style>
<g id="Capa_2_00000162336926350076998080000004215998955696591247_">
	
		<linearGradient id="SVGID_1_" gradientUnits="userSpaceOnUse" x1="246.7729" y1="440.4007" x2="89.0187" y2="328.3094" gradientTransform="matrix(1 0 0 -1 0 500)">
		<stop  offset="0" style="stop-color:#C7EBF9"/>
		<stop  offset="0.1019" style="stop-color:#B7E7FA"/>
		<stop  offset="0.3068" style="stop-color:#9EE0FB"/>
		<stop  offset="0.52" style="stop-color:#8CDCFB"/>
		<stop  offset="0.7447" style="stop-color:#81D9FC"/>
		<stop  offset="1" style="stop-color:#7ED8FC"/>
	</linearGradient>
	<polygon class="st0" points="59.9,143.3 253.5,25 253.5,103.9 124.4,182.8 	"/>
	
		<linearGradient id="SVGID_00000178178487732884557790000001899039985829488316_" gradientUnits="userSpaceOnUse" x1="267.2818" y1="429.2828" x2="398.8055" y2="345.6028" gradientTransform="matrix(1 0 0 -1 0 500)">
		<stop  offset="0" style="stop-color:#1A65A3"/>
		<stop  offset="1" style="stop-color:#41608C"/>
	</linearGradient>
	<polygon style="fill:url(#SVGID_00000178178487732884557790000001899039985829488316_);" points="446.2,142.6 380.2,182.8 
		253.5,103.9 253.5,25 	"/>
	<polygon class="st2" points="380.2,182.8 380.2,332.3 253.5,409.7 253.5,484.9 446.2,371.8 446.2,142.6 	"/>
	
		<linearGradient id="SVGID_00000168817062278586007500000016069024638467452561_" gradientUnits="userSpaceOnUse" x1="108.8602" y1="141.0979" x2="233.0145" y2="61.4303" gradientTransform="matrix(1 0 0 -1 0 500)">
		<stop  offset="0" style="stop-color:#1D7EDD"/>
		<stop  offset="0.4871" style="stop-color:#1472D1"/>
		<stop  offset="1" style="stop-color:#0860BF"/>
	</linearGradient>
	<polygon style="fill:url(#SVGID_00000168817062278586007500000016069024638467452561_);" points="125.2,335.4 253.5,409.7 
		253.5,484.9 59.9,369.5 	"/>
	
		<linearGradient id="SVGID_00000160895187125083154420000013735346090146662568_" gradientUnits="userSpaceOnUse" x1="91.0883" y1="165.5456" x2="93.5582" y2="326.2465" gradientTransform="matrix(1 0 0 -1 0 500)">
		<stop  offset="0" style="stop-color:#1D7EDD"/>
		<stop  offset="0.1677" style="stop-color:#2889DD"/>
		<stop  offset="1" style="stop-color:#5BBFDD"/>
	</linearGradient>
	<polygon style="fill:url(#SVGID_00000160895187125083154420000013735346090146662568_);" points="124.4,182.8 125.2,335.4 
		59.9,369.5 59.9,143.3 	"/>
	<polygon class="st5" points="253.5,182.8 253.5,103.9 124.4,182.8 189,222.3 	"/>
	
		<linearGradient id="SVGID_00000008127044343694761930000006683940876810459837_" gradientUnits="userSpaceOnUse" x1="236.0204" y1="368.6266" x2="361.9456" y2="288.5086" gradientTransform="matrix(1 0 0 -1 0 500)">
		<stop  offset="0" style="stop-color:#8CCAF4"/>
		<stop  offset="1" style="stop-color:#5BB2FB"/>
	</linearGradient>
	<polygon style="fill:url(#SVGID_00000008127044343694761930000006683940876810459837_);" points="315.7,222.3 253.5,182.8 
		253.5,103.9 380.2,182.8 	"/>
	<polygon class="st7" points="253.5,259.7 315.7,222.3 253.5,182.8 189,222.3 	"/>
	<polygon class="st8" points="253.5,335.4 253.5,259.7 189,222.3 189,296.6 	"/>
	<polygon class="st9" points="315.7,296.1 253.5,335.4 253.5,259.7 315.7,222.3 	"/>
	<polygon class="st10" points="380.2,259.7 315.7,296.1 315.7,222.3 380.2,182.8 	"/>
	<polygon class="st11" points="189,296.6 189,372.3 125.2,335.4 124.4,182.8 189,222.3 	"/>
	<polygon class="st12" points="315.7,296.1 315.7,371.7 380.2,332.3 380.2,259.7 	"/>
	<polygon class="st13" points="253.5,335.4 315.7,296.1 315.7,371.7 253.5,409.7 	"/>
	<polygon class="st14" points="189,296.6 253.5,335.4 253.5,409.7 189,372.3 	"/>
</g>
<g id="Capa_3">
	<g class="st15">
		<path class="st16" d="M654.8,300.8c5-17.9,11.2-37.1,18.5-57.7l39.3-108.8h58.5v227.5h-41.7V246.5c0-16.9,0.7-36.5,2-58.8H730
			c-1.9,6.5-4.2,13.7-6.8,21.8c-2.6,8.1-5.3,16-8.2,23.8l-47.1,128.6H641l-47.1-128.6c-2.8-7.8-5.6-15.8-8.2-23.8
			c-2.6-8-4.9-15.3-6.8-21.8h-1.5c1.4,21,2,40.5,2,58.7v115.5h-41.7V134.3H596l39.3,108.3c6.6,18,12.8,37.4,18.5,58.2H654.8z"/>
		<path class="st16" d="M870.5,134.3h41.7v168.2c0,7.5-0.5,13.9-1.6,19.3c-1.1,5.4-2.7,10.1-4.8,14.2c-2.8,5.4-6.4,10.1-10.7,13.9
			c-4.3,3.8-9.2,6.9-14.6,9.4c-5.4,2.4-11.3,4.2-17.5,5.3c-6.2,1.1-12.7,1.6-19.4,1.6c-6.9,0-13.6-0.6-20.2-1.7
			c-6.5-1.1-12-2.6-16.4-4.4v-35.5c5,2,10.3,3.6,16,4.8c5.7,1.1,11.3,1.7,16.8,1.7c10.8,0,18.6-2.5,23.5-7.5
			c4.9-5,7.3-12.4,7.3-22.1V134.3z"/>
		<path class="st16" d="M1177.2,248c0,17.3-2.5,33.2-7.4,47.7c-4.9,14.5-12.1,26.9-21.6,37.3c-9.5,10.4-21.1,18.5-34.9,24.3
			c-13.8,5.8-29.5,8.7-47,8.7c-17.6,0-33.2-2.9-47-8.7s-25.4-13.9-34.9-24.3c-9.5-10.4-16.7-22.9-21.6-37.3
			c-4.9-14.5-7.4-30.4-7.4-47.7s2.5-33.2,7.4-47.7s12.1-26.9,21.6-37.3c9.5-10.4,21.1-18.5,34.9-24.3s29.4-8.7,47-8.7
			c17.6,0,33.2,2.9,47,8.7c13.8,5.8,25.4,13.9,34.9,24.3c9.5,10.4,16.7,22.9,21.6,37.3S1177.2,230.7,1177.2,248z M1134.2,248
			c0-13.8-1.7-25.9-5.1-36.3s-8.1-19-14.1-25.9c-6-6.9-13.2-12.1-21.4-15.5c-8.3-3.4-17.3-5.1-27.2-5.1c-9.9,0-18.9,1.7-27.2,5.1
			c-8.3,3.4-15.4,8.6-21.4,15.5c-6,6.9-10.7,15.6-14.1,25.9s-5.1,22.5-5.1,36.3c0,13.8,1.7,25.9,5.1,36.3s8.1,19,14.1,25.8
			c6,6.9,13.2,12,21.4,15.5c8.3,3.5,17.3,5.2,27.2,5.2c9.9,0,18.9-1.7,27.2-5.2c8.3-3.5,15.4-8.6,21.4-15.5
			c6-6.9,10.7-15.5,14.1-25.8S1134.2,261.9,1134.2,248z"/>
	</g>
	<g class="st15">
		<path class="st17" d="M1263.2,134.3V327h106.5v34.9h-148.1V134.3H1263.2z"/>
		<path class="st17" d="M1408.8,361.8V134.3h41.7v227.5H1408.8z"/>
		<path class="st17" d="M1597.9,361.8h-41.7V169.1h-73.5v-34.9h188.4v34.9h-73.3V361.8z"/>
		<path class="st17" d="M1797.7,366.1c-11.9,0-22.6-1.2-32.1-3.5c-9.5-2.3-17.9-5.7-25.2-10c-7.3-4.4-13.4-9.7-18.5-16
			c-5.1-6.3-9.2-13.4-12.2-21.3c-2.5-6.3-4.3-13.4-5.4-21.1c-1.1-7.7-1.6-16.3-1.6-25.8v-134h41.7v130.3c0,16.1,1.9,28.7,5.8,37.8
			c4.3,10.1,10.6,17.4,18.9,21.9c8.3,4.5,18,6.7,29.3,6.7c11.2,0,21-2.2,29.3-6.7c8.3-4.5,14.6-11.8,18.9-21.9
			c3.9-9.1,5.8-21.7,5.8-37.8V134.3h41.7v134c0,9.5-0.5,18.1-1.6,25.8c-1.1,7.7-2.9,14.7-5.4,21.1c-3.1,7.9-7.2,15.1-12.3,21.3
			c-5.2,6.3-11.5,11.6-18.9,16c-7.4,4.4-16,7.7-25.6,10C1820.4,364.9,1809.6,366.1,1797.7,366.1z"/>
		<path class="st17" d="M1947.3,361.8V134.3h41.7v227.5H1947.3z"/>
	</g>
</g>
</svg>
